<svg width="36" height="31" viewBox="0 0 36 31" fill="none" xmlns="http://www.w3.org/2000/svg">
<g filter="url(#filter0_d_297_32)">
<path fill-rule="evenodd" clip-rule="evenodd" d="M4.30381 3.06028C12.9437 4.58733 18.9715 5.63215 22.3873 6.19475C25.803 6.75734 27.7118 7.03864 28.1137 7.03864C29.2389 7.03864 30.0627 6.77743 30.5851 6.25502C31.1477 5.73261 31.429 4.84853 31.429 3.60278V3L32.6346 3.18084V8.00309C32.6346 9.53014 32.4135 10.6553 31.9715 11.3787C31.5295 12.102 30.8463 12.524 29.922 12.6445V12.9459C30.8463 13.8702 31.6299 14.9954 32.2729 16.3215C32.9159 17.6476 33.2374 19.1345 33.2374 20.7821C33.2374 22.3493 32.936 23.4946 32.3332 24.2179C32.2062 24.3766 32.073 24.5228 31.9335 24.6564V28.0557C23.2937 26.5287 17.2658 25.4839 13.8501 24.9213C10.4343 24.3587 8.5255 24.0774 8.12365 24.0774C6.99846 24.0774 6.17465 24.3386 5.65224 24.861C5.08965 25.3834 4.80835 26.2675 4.80835 27.5132V28.116L3.60278 27.9352L3.60278 23.1129C3.60278 21.5859 3.8238 20.4607 4.26584 19.7373C4.70788 19.014 5.39104 18.5921 6.3153 18.4715V18.1701C5.39104 17.2458 4.60742 16.1207 3.96445 14.7945C3.32148 13.4684 3 11.9815 3 10.3339C3 8.76671 3.30139 7.62142 3.90417 6.89808C4.03112 6.7394 4.16433 6.59325 4.30381 6.45963L4.30381 3.06028ZM29.1384 21.4451C29.0561 21.6804 28.96 21.895 28.8501 22.089L9.6306 18.7126C8.70634 17.9491 7.983 17.0248 7.46059 15.9398C6.89799 14.8146 6.61669 13.6492 6.61669 12.4437C6.61669 11.3587 6.77743 10.4344 7.09892 9.67088C7.18127 9.43559 7.2774 9.22097 7.3873 9.02701L26.6067 12.4034C27.531 13.1669 28.2544 14.0912 28.7768 15.1762C29.3394 16.3014 29.6207 17.4668 29.6207 18.6723C29.6207 19.7573 29.4599 20.6816 29.1384 21.4451Z" fill="#C4C4C4"/>
</g>
<mask id="path-2-outside-1_297_32" maskUnits="userSpaceOnUse" x="2" y="2" width="32" height="27" fill="black">
<rect fill="white" x="2" y="2" width="32" height="27"/>
<path fill-rule="evenodd" clip-rule="evenodd" d="M22.3873 6.19475C18.9715 5.63215 12.9437 4.58733 4.30381 3.06028L4.30381 6.45963C4.16433 6.59325 4.03112 6.7394 3.90417 6.89808C3.30139 7.62142 3 8.76671 3 10.3339C3 11.9815 3.32148 13.4684 3.96445 14.7945C4.60742 16.1207 5.39104 17.2458 6.3153 18.1701V18.4715C5.39104 18.5921 4.70788 19.014 4.26584 19.7373C3.8238 20.4607 3.60278 21.5859 3.60278 23.1129L3.60278 27.9352L4.80835 28.116V27.5132C4.80835 26.2675 5.08965 25.3834 5.65224 24.861C6.17465 24.3386 6.99846 24.0774 8.12365 24.0774C8.5255 24.0774 10.4343 24.3587 13.8501 24.9213C17.2658 25.4839 23.2937 26.5287 31.9335 28.0557V24.6564C32.073 24.5228 32.2062 24.3766 32.3332 24.2179C32.936 23.4946 33.2374 22.3493 33.2374 20.7821C33.2374 19.1345 32.9159 17.6476 32.2729 16.3215C31.6299 14.9954 30.8463 13.8702 29.922 12.9459V12.6445C30.8463 12.524 31.5295 12.102 31.9715 11.3787C32.4135 10.6553 32.6346 9.53014 32.6346 8.00309V3.18084L31.429 3V3.60278C31.429 4.84853 31.1477 5.73261 30.5851 6.25502C30.0627 6.77743 29.2389 7.03864 28.1137 7.03864C27.7118 7.03864 25.803 6.75734 22.3873 6.19475ZM28.8501 22.089C28.96 21.895 29.0561 21.6804 29.1384 21.4451C29.4599 20.6816 29.6207 19.7573 29.6207 18.6723C29.6207 17.4668 29.3394 16.3014 28.7768 15.1762C28.2544 14.0912 27.531 13.1669 26.6067 12.4034L7.3873 9.02701C7.2774 9.22097 7.18127 9.43559 7.09892 9.67088C6.77743 10.4344 6.61669 11.3587 6.61669 12.4437C6.61669 13.6492 6.89799 14.8146 7.46059 15.9398C7.983 17.0248 8.70634 17.9491 9.6306 18.7126L28.8501 22.089Z"/>
</mask>
<path fill-rule="evenodd" clip-rule="evenodd" d="M22.3873 6.19475C18.9715 5.63215 12.9437 4.58733 4.30381 3.06028L4.30381 6.45963C4.16433 6.59325 4.03112 6.7394 3.90417 6.89808C3.30139 7.62142 3 8.76671 3 10.3339C3 11.9815 3.32148 13.4684 3.96445 14.7945C4.60742 16.1207 5.39104 17.2458 6.3153 18.1701V18.4715C5.39104 18.5921 4.70788 19.014 4.26584 19.7373C3.8238 20.4607 3.60278 21.5859 3.60278 23.1129L3.60278 27.9352L4.80835 28.116V27.5132C4.80835 26.2675 5.08965 25.3834 5.65224 24.861C6.17465 24.3386 6.99846 24.0774 8.12365 24.0774C8.5255 24.0774 10.4343 24.3587 13.8501 24.9213C17.2658 25.4839 23.2937 26.5287 31.9335 28.0557V24.6564C32.073 24.5228 32.2062 24.3766 32.3332 24.2179C32.936 23.4946 33.2374 22.3493 33.2374 20.7821C33.2374 19.1345 32.9159 17.6476 32.2729 16.3215C31.6299 14.9954 30.8463 13.8702 29.922 12.9459V12.6445C30.8463 12.524 31.5295 12.102 31.9715 11.3787C32.4135 10.6553 32.6346 9.53014 32.6346 8.00309V3.18084L31.429 3V3.60278C31.429 4.84853 31.1477 5.73261 30.5851 6.25502C30.0627 6.77743 29.2389 7.03864 28.1137 7.03864C27.7118 7.03864 25.803 6.75734 22.3873 6.19475ZM28.8501 22.089C28.96 21.895 29.0561 21.6804 29.1384 21.4451C29.4599 20.6816 29.6207 19.7573 29.6207 18.6723C29.6207 17.4668 29.3394 16.3014 28.7768 15.1762C28.2544 14.0912 27.531 13.1669 26.6067 12.4034L7.3873 9.02701C7.2774 9.22097 7.18127 9.43559 7.09892 9.67088C6.77743 10.4344 6.61669 11.3587 6.61669 12.4437C6.61669 13.6492 6.89799 14.8146 7.46059 15.9398C7.983 17.0248 8.70634 17.9491 9.6306 18.7126L28.8501 22.089Z" fill="#D20026"/>
<path d="M4.30381 3.06028L4.36558 2.71083L3.94895 2.63719L3.94895 3.06028L4.30381 3.06028ZM22.3873 6.19475L22.3296 6.54489L22.3296 6.54489L22.3873 6.19475ZM4.30381 6.45963L4.5493 6.71588L4.65868 6.6111L4.65868 6.45963L4.30381 6.45963ZM3.90417 6.89808L4.17684 7.12531L4.18127 7.11977L3.90417 6.89808ZM3.96445 14.7945L4.28376 14.6397L4.28376 14.6397L3.96445 14.7945ZM6.3153 18.1701H6.67017V18.0231L6.56623 17.9192L6.3153 18.1701ZM6.3153 18.4715L6.3612 18.8234L6.67017 18.7831V18.4715H6.3153ZM4.26584 19.7373L4.56864 19.9224L4.56864 19.9224L4.26584 19.7373ZM3.60278 23.1129L3.24792 23.1129L3.60278 23.1129ZM3.60278 27.9352L3.24792 27.9352L3.24792 28.2408L3.55014 28.2861L3.60278 27.9352ZM4.80835 28.116L4.75571 28.467L5.16321 28.5281V28.116H4.80835ZM5.65224 24.861L5.89388 25.1212L5.90317 25.1119L5.65224 24.861ZM13.8501 24.9213L13.9077 24.5711L13.9077 24.5711L13.8501 24.9213ZM31.9335 28.0557L31.8718 28.4052L32.2884 28.4788V28.0557H31.9335ZM31.9335 24.6564L31.6881 24.4001L31.5787 24.5049V24.6564H31.9335ZM32.3332 24.2179L32.0605 23.9907L32.0561 23.9962L32.3332 24.2179ZM29.922 12.9459H29.5672V13.0929L29.6711 13.1968L29.922 12.9459ZM29.922 12.6445L29.8762 12.2926L29.5672 12.3329V12.6445H29.922ZM31.9715 11.3787L32.2743 11.5637L32.2743 11.5637L31.9715 11.3787ZM32.6346 3.18084H32.9894V2.87523L32.6872 2.8299L32.6346 3.18084ZM31.429 3L31.4816 2.64906L31.0741 2.58794V3H31.429ZM30.5851 6.25502L30.3435 5.9948L30.3342 6.0041L30.5851 6.25502ZM28.8501 22.089L28.7887 22.4385L29.0353 22.4818L29.1588 22.2639L28.8501 22.089ZM29.1384 21.4451L28.8114 21.3074L28.8071 21.3175L28.8035 21.3279L29.1384 21.4451ZM28.7768 15.1762L28.457 15.3302L28.4594 15.3349L28.7768 15.1762ZM26.6067 12.4034L26.8328 12.1298L26.7605 12.0701L26.6681 12.0539L26.6067 12.4034ZM7.3873 9.02701L7.4487 8.6775L7.20203 8.63416L7.07856 8.85207L7.3873 9.02701ZM7.09892 9.67088L7.42597 9.80859L7.43023 9.79847L7.43386 9.78811L7.09892 9.67088ZM7.46059 15.9398L7.78036 15.7859L7.77799 15.7811L7.46059 15.9398ZM9.6306 18.7126L9.4046 18.9862L9.47687 19.0459L9.5692 19.0621L9.6306 18.7126ZM4.24205 3.40973C12.8818 4.93676 18.9115 5.98192 22.3296 6.54489L22.4449 5.8446C19.0315 5.28238 13.0055 4.23789 4.36558 2.71083L4.24205 3.40973ZM4.65868 6.45963L4.65868 3.06028L3.94895 3.06028L3.94895 6.45963L4.65868 6.45963ZM4.18127 7.11977C4.29896 6.97266 4.42168 6.83814 4.5493 6.71588L4.05833 6.20338C3.90699 6.34835 3.76328 6.50614 3.62707 6.6764L4.18127 7.11977ZM3.35486 10.3339C3.35486 8.79884 3.65251 7.75439 4.17679 7.12526L3.63156 6.67091C2.95027 7.48846 2.64514 8.73457 2.64514 10.3339H3.35486ZM4.28376 14.6397C3.66683 13.3673 3.35486 11.9343 3.35486 10.3339H2.64514C2.64514 12.0288 2.97614 13.5695 3.64514 14.9493L4.28376 14.6397ZM6.56623 17.9192C5.67328 17.0262 4.91164 15.9347 4.28376 14.6397L3.64514 14.9493C4.3032 16.3066 5.10879 17.4654 6.06438 18.421L6.56623 17.9192ZM6.67017 18.4715V18.1701H5.96044V18.4715H6.67017ZM4.56864 19.9224C4.94864 19.3006 5.53132 18.9316 6.3612 18.8234L6.2694 18.1196C5.25075 18.2525 4.46713 18.7274 3.96304 19.5523L4.56864 19.9224ZM3.95765 23.1129C3.95765 21.6061 4.17828 20.5612 4.56864 19.9224L3.96304 19.5523C3.46933 20.3602 3.24792 21.5656 3.24792 23.1129L3.95765 23.1129ZM3.95765 27.9352L3.95765 23.1129L3.24792 23.1129L3.24792 27.9352L3.95765 27.9352ZM4.86099 27.7651L3.65542 27.5842L3.55014 28.2861L4.75571 28.467L4.86099 27.7651ZM4.45348 27.5132V28.116H5.16321V27.5132H4.45348ZM5.41078 24.6009C4.74153 25.2224 4.45348 26.2283 4.45348 27.5132H5.16321C5.16321 26.3067 5.43776 25.5444 5.89371 25.121L5.41078 24.6009ZM8.12365 23.7225C6.95269 23.7225 6.01805 23.9933 5.40132 24.6101L5.90317 25.1119C6.33126 24.6838 7.04423 24.4322 8.12365 24.4322V23.7225ZM13.9077 24.5711C12.1992 24.2897 10.8657 24.0784 9.90838 23.9373C8.96673 23.7985 8.3572 23.7225 8.12365 23.7225V24.4322C8.29196 24.4322 8.83775 24.4969 9.80491 24.6394C10.7564 24.7796 12.0852 24.9902 13.7924 25.2714L13.9077 24.5711ZM31.9953 27.7063C23.3555 26.1793 17.3258 25.1341 13.9077 24.5711L13.7924 25.2714C17.2059 25.8336 23.2318 26.8781 31.8718 28.4052L31.9953 27.7063ZM31.5787 24.6564V28.0557H32.2884V24.6564H31.5787ZM32.0561 23.9962C31.9384 24.1434 31.8157 24.2779 31.6881 24.4001L32.179 24.9126C32.3304 24.7677 32.4741 24.6099 32.6103 24.4396L32.0561 23.9962ZM32.8825 20.7821C32.8825 22.3172 32.5848 23.3616 32.0606 23.9908L32.6058 24.4451C33.2871 23.6276 33.5922 22.3814 33.5922 20.7821H32.8825ZM31.9536 16.4763C32.5705 17.7487 32.8825 19.1817 32.8825 20.7821H33.5922C33.5922 19.0872 33.2612 17.5465 32.5922 16.1667L31.9536 16.4763ZM29.6711 13.1968C30.5641 14.0898 31.3257 15.1813 31.9536 16.4763L32.5922 16.1667C31.9341 14.8094 31.1286 13.6506 30.173 12.695L29.6711 13.1968ZM29.5672 12.6445V12.9459H30.2769V12.6445H29.5672ZM31.6687 11.1936C31.2887 11.8154 30.706 12.1844 29.8762 12.2926L29.9679 12.9964C30.9866 12.8635 31.7702 12.3886 32.2743 11.5637L31.6687 11.1936ZM32.2797 8.00309C32.2797 9.50991 32.0591 10.5548 31.6687 11.1936L32.2743 11.5637C32.768 10.7558 32.9894 9.55037 32.9894 8.00309H32.2797ZM32.2797 3.18084V8.00309H32.9894V3.18084H32.2797ZM31.3764 3.35094L32.5819 3.53177L32.6872 2.8299L31.4816 2.64906L31.3764 3.35094ZM31.7839 3.60278V3H31.0741V3.60278H31.7839ZM30.8266 6.51507C31.4958 5.89362 31.7839 4.88776 31.7839 3.60278H31.0741C31.0741 4.8093 30.7996 5.5716 30.3436 5.99498L30.8266 6.51507ZM28.1137 7.3935C29.2847 7.3935 30.2193 7.12269 30.836 6.50595L30.3342 6.0041C29.9061 6.43218 29.1931 6.68378 28.1137 6.68378V7.3935ZM22.3296 6.54489C24.0382 6.8263 25.3716 7.03766 26.329 7.17874C27.2706 7.31751 27.8802 7.3935 28.1137 7.3935V6.68378C27.9454 6.68378 27.3996 6.61912 26.4324 6.47659C25.481 6.33638 24.1521 6.12578 22.4449 5.8446L22.3296 6.54489ZM29.1588 22.2639C29.2803 22.0496 29.3848 21.8153 29.4734 21.5624L28.8035 21.3279C28.7273 21.5455 28.6396 21.7405 28.5413 21.9141L29.1588 22.2639ZM29.4655 21.5828C29.8101 20.7645 29.9755 19.7907 29.9755 18.6723H29.2658C29.2658 19.724 29.1098 20.5987 28.8114 21.3074L29.4655 21.5828ZM29.9755 18.6723C29.9755 17.4093 29.6803 16.1898 29.0942 15.0175L28.4594 15.3349C28.9984 16.413 29.2658 17.5243 29.2658 18.6723H29.9755ZM29.0965 15.0223C28.552 13.8913 27.7967 12.9261 26.8328 12.1298L26.3807 12.677C27.2653 13.4077 27.9568 14.2911 28.457 15.3301L29.0965 15.0223ZM26.6681 12.0539L7.4487 8.6775L7.3259 9.37652L26.5453 12.7529L26.6681 12.0539ZM7.07856 8.85207C6.95708 9.06645 6.85251 9.30069 6.76398 9.55365L7.43386 9.78811C7.51002 9.5705 7.59772 9.37548 7.69604 9.20195L7.07856 8.85207ZM6.77186 9.53317C6.4273 10.3515 6.26183 11.3253 6.26183 12.4437H6.97156C6.97156 11.392 7.12757 10.5173 7.42597 9.80859L6.77186 9.53317ZM6.26183 12.4437C6.26183 13.7068 6.55706 14.9263 7.14319 16.0985L7.77799 15.7811C7.23892 14.703 6.97156 13.5917 6.97156 12.4437H6.26183ZM7.14086 16.0938C7.6854 17.2247 8.44063 18.1899 9.4046 18.9862L9.85661 18.439C8.97204 17.7083 8.2806 16.8249 7.78032 15.7859L7.14086 16.0938ZM9.5692 19.0621L28.7887 22.4385L28.9115 21.7395L9.692 18.3631L9.5692 19.0621Z" fill="#4B4943" mask="url(#path-2-outside-1_297_32)"/>
<defs>
<filter id="filter0_d_297_32" x="0.870817" y="0.870817" width="34.4957" height="29.3746" filterUnits="userSpaceOnUse" color-interpolation-filters="sRGB">
<feFlood flood-opacity="0" result="BackgroundImageFix"/>
<feColorMatrix in="SourceAlpha" type="matrix" values="0 0 0 0 0 0 0 0 0 0 0 0 0 0 0 0 0 0 127 0" result="hardAlpha"/>
<feOffset/>
<feGaussianBlur stdDeviation="1.06459"/>
<feComposite in2="hardAlpha" operator="out"/>
<feColorMatrix type="matrix" values="0 0 0 0 0.541667 0 0 0 0 0.345313 0 0 0 0 0.380656 0 0 0 1 0"/>
<feBlend mode="normal" in2="BackgroundImageFix" result="effect1_dropShadow_297_32"/>
<feBlend mode="normal" in="SourceGraphic" in2="effect1_dropShadow_297_32" result="shape"/>
</filter>
</defs>
</svg>
