<svg width="37" height="32" viewBox="0 0 37 32" fill="none" xmlns="http://www.w3.org/2000/svg">
<mask id="path-1-outside-1_314_67" maskUnits="userSpaceOnUse" x="0" y="0" width="37" height="32" fill="black">
<rect fill="white" width="37" height="32"/>
<path fill-rule="evenodd" clip-rule="evenodd" d="M22.8627 4.78831C18.8123 4.12119 11.6646 2.88224 1.41948 1.07148L1.41948 6.91114C1.13983 7.68206 1 8.64873 1 9.81117C1 11.7649 1.38121 13.528 2.14364 15.1005C2.90607 16.673 3.83528 18.0073 4.93126 19.1032V19.4606C3.83528 19.6036 3.0252 20.1039 2.50103 20.9617C1.97686 21.8194 1.71477 23.1536 1.71477 24.9644L1.71477 30.6826L3.14433 30.897L3.14433 30.1823C3.14433 28.7051 3.47789 27.6567 4.14501 27.0373C4.76448 26.4178 5.74134 26.108 7.07559 26.108C7.55211 26.108 9.81556 26.4416 13.866 27.1087C17.9163 27.7759 25.0641 29.0148 35.3092 30.8256V24.9859C35.5889 24.215 35.7287 23.2483 35.7287 22.0859C35.7287 20.1322 35.3475 18.369 34.5851 16.7965C33.8226 15.224 32.8934 13.8898 31.7974 12.7938V12.4364C32.8934 12.2935 33.7035 11.7931 34.2277 10.9354C34.7518 10.0776 35.0139 8.7434 35.0139 6.93264V1.21443L33.5844 1V1.71478C33.5844 3.19198 33.2508 4.24032 32.5837 4.85979C31.9642 5.47926 30.9874 5.789 29.6531 5.789C29.1766 5.789 26.9131 5.45543 22.8627 4.78831ZM30.5682 23.5597C30.6812 23.35 30.7812 23.1208 30.8682 22.8721C31.2494 21.9667 31.44 20.8708 31.44 19.5842C31.44 18.1546 31.1065 16.7727 30.4394 15.4385C29.8199 14.1519 28.9622 13.0559 27.8662 12.1505L6.16048 8.33733C6.0475 8.54706 5.9475 8.77626 5.86047 9.02491C5.47926 9.93029 5.28865 11.0263 5.28865 12.3129C5.28865 13.7424 5.62221 15.1243 6.28934 16.4586C6.90881 17.7452 7.76654 18.8412 8.86253 19.7465L30.5682 23.5597Z"/>
</mask>
<path fill-rule="evenodd" clip-rule="evenodd" d="M22.8627 4.78831C18.8123 4.12119 11.6646 2.88224 1.41948 1.07148L1.41948 6.91114C1.13983 7.68206 1 8.64873 1 9.81117C1 11.7649 1.38121 13.528 2.14364 15.1005C2.90607 16.673 3.83528 18.0073 4.93126 19.1032V19.4606C3.83528 19.6036 3.0252 20.1039 2.50103 20.9617C1.97686 21.8194 1.71477 23.1536 1.71477 24.9644L1.71477 30.6826L3.14433 30.897L3.14433 30.1823C3.14433 28.7051 3.47789 27.6567 4.14501 27.0373C4.76448 26.4178 5.74134 26.108 7.07559 26.108C7.55211 26.108 9.81556 26.4416 13.866 27.1087C17.9163 27.7759 25.0641 29.0148 35.3092 30.8256V24.9859C35.5889 24.215 35.7287 23.2483 35.7287 22.0859C35.7287 20.1322 35.3475 18.369 34.5851 16.7965C33.8226 15.224 32.8934 13.8898 31.7974 12.7938V12.4364C32.8934 12.2935 33.7035 11.7931 34.2277 10.9354C34.7518 10.0776 35.0139 8.7434 35.0139 6.93264V1.21443L33.5844 1V1.71478C33.5844 3.19198 33.2508 4.24032 32.5837 4.85979C31.9642 5.47926 30.9874 5.789 29.6531 5.789C29.1766 5.789 26.9131 5.45543 22.8627 4.78831ZM30.5682 23.5597C30.6812 23.35 30.7812 23.1208 30.8682 22.8721C31.2494 21.9667 31.44 20.8708 31.44 19.5842C31.44 18.1546 31.1065 16.7727 30.4394 15.4385C29.8199 14.1519 28.9622 13.0559 27.8662 12.1505L6.16048 8.33733C6.0475 8.54706 5.9475 8.77626 5.86047 9.02491C5.47926 9.93029 5.28865 11.0263 5.28865 12.3129C5.28865 13.7424 5.62221 15.1243 6.28934 16.4586C6.90881 17.7452 7.76654 18.8412 8.86253 19.7465L30.5682 23.5597Z" fill="#D20026"/>
<path d="M1.41948 1.07148L1.49272 0.657104L0.998683 0.569786L0.998683 1.07148L1.41948 1.07148ZM22.8627 4.78831L22.9311 4.37311L22.8627 4.78831ZM1.41948 6.91114L1.81505 7.05463L1.84027 6.9851L1.84027 6.91114L1.41948 6.91114ZM2.14364 15.1005L2.52228 14.9169L2.52228 14.9169L2.14364 15.1005ZM4.93126 19.1032H5.35206V18.9289L5.22881 18.8057L4.93126 19.1032ZM4.93126 19.4606L4.98569 19.8779L5.35206 19.8301V19.4606H4.93126ZM2.50103 20.9617L2.14197 20.7422L2.14197 20.7422L2.50103 20.9617ZM1.71477 24.9644L1.29398 24.9644L1.71477 24.9644ZM1.71477 30.6826L1.29398 30.6826L1.29398 31.045L1.65235 31.0987L1.71477 30.6826ZM3.14433 30.897L3.08191 31.3132L3.56512 31.3857L3.56512 30.897L3.14433 30.897ZM3.14433 30.1823L2.72353 30.1823L2.72353 30.1823L3.14433 30.1823ZM4.14501 27.0373L4.43134 27.3456L4.43705 27.3403L4.44256 27.3348L4.14501 27.0373ZM13.866 27.1087L13.9343 26.6935L13.9343 26.6935L13.866 27.1087ZM35.3092 30.8256L35.236 31.2399L35.73 31.3273V30.8256H35.3092ZM35.3092 24.9859L34.9136 24.8424L34.8884 24.9119V24.9859H35.3092ZM34.5851 16.7965L34.2064 16.9801L34.2064 16.9801L34.5851 16.7965ZM31.7974 12.7938H31.3766V12.9681L31.4999 13.0913L31.7974 12.7938ZM31.7974 12.4364L31.743 12.0191L31.3766 12.0669V12.4364H31.7974ZM34.2277 10.9354L33.8686 10.716L33.8686 10.716L34.2277 10.9354ZM35.0139 1.21443H35.4347V0.85205L35.0763 0.798293L35.0139 1.21443ZM33.5844 1L33.6468 0.58386L33.1636 0.511377V1H33.5844ZM32.5837 4.85979L32.2974 4.55143L32.2916 4.55673L32.2861 4.56224L32.5837 4.85979ZM30.5682 23.5597L30.4954 23.9742L30.7946 24.0267L30.9387 23.7593L30.5682 23.5597ZM30.8682 22.8721L30.4804 22.7088L30.4754 22.7208L30.4711 22.7331L30.8682 22.8721ZM30.4394 15.4385L30.0602 15.621L30.063 15.6266L30.4394 15.4385ZM27.8662 12.1505L28.1342 11.8261L28.0485 11.7553L27.939 11.736L27.8662 12.1505ZM6.16048 8.33733L6.23329 7.92289L5.93409 7.87032L5.79002 8.13777L6.16048 8.33733ZM5.86047 9.02491L6.24829 9.1882L6.25334 9.17621L6.25764 9.16392L5.86047 9.02491ZM6.28934 16.4586L6.66852 16.276L6.66571 16.2704L6.28934 16.4586ZM8.86253 19.7465L8.59453 20.071L8.68023 20.1418L8.78972 20.161L8.86253 19.7465ZM1.34624 1.48585C11.5913 3.2966 18.7412 4.53594 22.7944 5.20351L22.9311 4.37311C18.8835 3.70643 11.7379 2.46788 1.49272 0.657104L1.34624 1.48585ZM1.84027 6.91114L1.84027 1.07148L0.998683 1.07148L0.998683 6.91114L1.84027 6.91114ZM1.4208 9.81117C1.4208 8.67889 1.55747 7.76471 1.81505 7.05463L1.02391 6.76764C0.722181 7.59941 0.579205 8.61857 0.579205 9.81117H1.4208ZM2.52228 14.9169C1.79072 13.4081 1.4208 11.7089 1.4208 9.81117H0.579205C0.579205 11.8209 0.971709 13.6479 1.765 15.2841L2.52228 14.9169ZM5.22881 18.8057C4.16996 17.7468 3.2668 16.4525 2.52228 14.9169L1.765 15.2841C2.54533 16.8935 3.50059 18.2677 4.63372 19.4008L5.22881 18.8057ZM5.35206 19.4606V19.1032H4.51047V19.4606H5.35206ZM2.86008 21.1811C3.31069 20.4437 4.00163 20.0063 4.98569 19.8779L4.87684 19.0434C3.66893 19.2009 2.73971 19.7641 2.14197 20.7422L2.86008 21.1811ZM2.13557 24.9644C2.13557 23.1776 2.39719 21.9385 2.86008 21.1811L2.14197 20.7422C1.55653 21.7002 1.29398 23.1296 1.29398 24.9644L2.13557 24.9644ZM2.13557 30.6826L2.13557 24.9644L1.29398 24.9644L1.29398 30.6826L2.13557 30.6826ZM3.20675 30.4809L1.7772 30.2665L1.65235 31.0987L3.08191 31.3132L3.20675 30.4809ZM2.72353 30.1823L2.72353 30.897L3.56512 30.897L3.56512 30.1823L2.72353 30.1823ZM3.85868 26.7289C3.06509 27.4658 2.72353 28.6585 2.72353 30.1823H3.56512C3.56512 28.7516 3.89068 27.8476 4.43134 27.3456L3.85868 26.7289ZM7.07559 25.6872C5.68707 25.6872 4.57879 26.0084 3.84746 26.7397L4.44256 27.3348C4.95018 26.8272 5.79562 26.5288 7.07559 26.5288V25.6872ZM13.9343 26.6935C11.9083 26.3598 10.3271 26.1092 9.19192 25.9419C8.07532 25.7774 7.35253 25.6872 7.07559 25.6872V26.5288C7.27517 26.5288 7.92237 26.6055 9.06922 26.7745C10.1975 26.9408 11.7732 27.1905 13.7976 27.5239L13.9343 26.6935ZM35.3825 30.4112C25.1374 28.6004 17.9875 27.3611 13.9343 26.6935L13.7976 27.5239C17.8452 28.1906 24.9908 29.4292 35.236 31.2399L35.3825 30.4112ZM34.8884 24.9859V30.8256H35.73V24.9859H34.8884ZM35.3079 22.0859C35.3079 23.2181 35.1712 24.1323 34.9136 24.8424L35.7048 25.1294C36.0065 24.2976 36.1495 23.2785 36.1495 22.0859H35.3079ZM34.2064 16.9801C34.938 18.489 35.3079 20.1882 35.3079 22.0859H36.1495C36.1495 20.0761 35.757 18.2491 34.9637 16.613L34.2064 16.9801ZM31.4999 13.0913C32.5587 14.1502 33.4619 15.4445 34.2064 16.9801L34.9637 16.613C34.1834 15.0035 33.2281 13.6294 32.095 12.4962L31.4999 13.0913ZM31.3766 12.4364V12.7938H32.2182V12.4364H31.3766ZM33.8686 10.716C33.418 11.4533 32.7271 11.8908 31.743 12.0191L31.8519 12.8537C33.0598 12.6961 33.989 12.1329 34.5867 11.1548L33.8686 10.716ZM34.5931 6.93264C34.5931 8.71941 34.3315 9.95849 33.8686 10.716L34.5867 11.1548C35.1722 10.1968 35.4347 8.76739 35.4347 6.93264H34.5931ZM34.5931 1.21443V6.93264H35.4347V1.21443H34.5931ZM33.5219 1.41614L34.9515 1.63057L35.0763 0.798293L33.6468 0.58386L33.5219 1.41614ZM34.0052 1.71478V1H33.1636V1.71478H34.0052ZM32.87 5.16814C33.6636 4.43124 34.0052 3.2385 34.0052 1.71478H33.1636C33.1636 3.14546 32.838 4.04939 32.2974 4.55143L32.87 5.16814ZM29.6531 6.20979C31.0416 6.20979 32.1499 5.88866 32.8812 5.15733L32.2861 4.56224C31.7785 5.06986 30.9331 5.3682 29.6531 5.3682V6.20979ZM22.7944 5.20351C24.8204 5.53721 26.4016 5.78783 27.5368 5.95512C28.6534 6.11968 29.3762 6.20979 29.6531 6.20979V5.3682C29.4535 5.3682 28.8063 5.29153 27.6595 5.12252C26.5312 4.95626 24.9555 4.70653 22.9311 4.37311L22.7944 5.20351ZM30.9387 23.7593C31.0632 23.5282 31.1718 23.2785 31.2654 23.0111L30.4711 22.7331C30.3906 22.9631 30.2992 23.1718 30.1977 23.3601L30.9387 23.7593ZM31.256 23.0354C31.6646 22.065 31.8608 20.9103 31.8608 19.5842H31.0192C31.0192 20.8312 30.8342 21.8685 30.4804 22.7088L31.256 23.0354ZM31.8608 19.5842C31.8608 18.0864 31.5108 16.6403 30.8157 15.2503L30.063 15.6266C30.7022 16.9051 31.0192 18.2228 31.0192 19.5842H31.8608ZM30.8185 15.2559C30.1728 13.9148 29.2772 12.7703 28.1342 11.8261L27.5982 12.4749C28.6471 13.3414 29.467 14.3889 30.0602 15.621L30.8185 15.2559ZM27.939 11.736L6.23329 7.92289L6.08768 8.75178L27.7934 12.5649L27.939 11.736ZM5.79002 8.13777C5.66553 8.36887 5.55687 8.61855 5.4633 8.8859L6.25764 9.16392C6.33813 8.93396 6.42948 8.72526 6.53095 8.5369L5.79002 8.13777ZM5.47265 8.86162C5.06407 9.83201 4.86786 10.9867 4.86786 12.3129H5.70945C5.70945 11.0658 5.89445 10.0286 6.24829 9.1882L5.47265 8.86162ZM4.86786 12.3129C4.86786 13.8106 5.21794 15.2567 5.91297 16.6468L6.66571 16.2704C6.02649 14.992 5.70945 13.6742 5.70945 12.3129H4.86786ZM5.9102 16.6411C6.55592 17.9822 7.45147 19.1267 8.59453 20.071L9.13053 19.4221C8.08161 18.5556 7.2617 17.5081 6.66847 16.276L5.9102 16.6411ZM8.78972 20.161L30.4954 23.9742L30.641 23.1453L8.93534 19.3321L8.78972 20.161Z" fill="#4B4943" mask="url(#path-1-outside-1_314_67)"/>
</svg>
