<svg width="93" height="14" viewBox="0 0 93 14" fill="none" xmlns="http://www.w3.org/2000/svg">
<path d="M2.756 0.993999L3.017 4.474L2.872 4.01C3.18133 3.27533 3.626 2.65667 4.206 2.154C4.80533 1.632 5.424 1.23567 6.062 0.964999C6.71933 0.675 7.28967 0.53 7.773 0.53L7.628 3.198C6.71933 3.14 5.917 3.314 5.221 3.72C4.54433 4.126 4.003 4.66733 3.597 5.344C3.21033 6.02067 3.017 6.74567 3.017 7.519V13H0.349V0.993999H2.756ZM8.97355 6.881C8.97355 5.68233 9.25389 4.59967 9.81455 3.633C10.3946 2.66633 11.1872 1.90267 12.1926 1.342C13.1979 0.781333 14.3386 0.500999 15.6146 0.500999C16.9292 0.500999 18.0796 0.781333 19.0656 1.342C20.0516 1.90267 20.8152 2.66633 21.3566 3.633C21.8979 4.59967 22.1686 5.68233 22.1686 6.881C22.1686 8.07967 21.8979 9.172 21.3566 10.158C20.8152 11.1247 20.0419 11.8883 19.0366 12.449C18.0506 13.0097 16.9002 13.29 15.5856 13.29C14.3096 13.29 13.1689 13.029 12.1636 12.507C11.1776 11.9657 10.3946 11.2213 9.81455 10.274C9.25389 9.30733 8.97355 8.17633 8.97355 6.881ZM11.6706 6.91C11.6706 7.68333 11.8446 8.389 12.1926 9.027C12.5406 9.64567 13.0046 10.1387 13.5846 10.506C14.1839 10.8733 14.8412 11.057 15.5566 11.057C16.3106 11.057 16.9776 10.8733 17.5576 10.506C18.1569 10.1387 18.6209 9.64567 18.9496 9.027C19.2782 8.389 19.4426 7.68333 19.4426 6.91C19.4426 6.13667 19.2782 5.44067 18.9496 4.822C18.6209 4.184 18.1569 3.68133 17.5576 3.314C16.9776 2.92733 16.3106 2.734 15.5566 2.734C14.8219 2.734 14.1549 2.92733 13.5556 3.314C12.9756 3.70067 12.5116 4.213 12.1636 4.851C11.8349 5.46967 11.6706 6.156 11.6706 6.91ZM32.4121 0.993999L35.9501 9.085L35.4281 9.143L38.7341 0.993999H41.3731L35.8631 13.725L32.0061 5.489L28.4971 13.725L22.9291 0.993999H25.5681L29.3091 9.462L28.3811 9.288L31.0491 3.082L30.0921 0.993999H32.4121ZM48.8279 13.29C47.4553 13.29 46.2759 13.0193 45.2899 12.478C44.3039 11.9173 43.5403 11.1633 42.9989 10.216C42.4769 9.24933 42.2159 8.14733 42.2159 6.91C42.2159 5.73067 42.5156 4.65767 43.1149 3.691C43.7143 2.72433 44.5166 1.951 45.5219 1.371C46.5273 0.790999 47.6486 0.500999 48.8859 0.500999C50.4713 0.500999 51.7859 0.964999 52.8299 1.893C53.8739 2.821 54.5796 4.097 54.9469 5.721L45.0579 9.201L44.4199 7.606L52.5399 4.648L51.9599 5.025C51.7279 4.387 51.3413 3.836 50.7999 3.372C50.2586 2.88867 49.5529 2.647 48.6829 2.647C47.9483 2.647 47.2909 2.83067 46.7109 3.198C46.1309 3.546 45.6766 4.02933 45.3479 4.648C45.0193 5.26667 44.8549 5.97233 44.8549 6.765C44.8549 7.59633 45.0289 8.331 45.3769 8.969C45.7249 9.58767 46.1986 10.0807 46.7979 10.448C47.4166 10.796 48.1126 10.97 48.8859 10.97C49.4079 10.97 49.9106 10.8733 50.3939 10.68C50.8966 10.4867 51.3606 10.2353 51.7859 9.926L53.0329 11.927C52.4336 12.333 51.7569 12.6617 51.0029 12.913C50.2683 13.1643 49.5433 13.29 48.8279 13.29ZM60.0083 0.993999L60.2403 3.691L60.1243 3.459C60.569 2.55033 61.1973 1.835 62.0093 1.313C62.8407 0.791 63.788 0.53 64.8513 0.53C65.528 0.53 66.1273 0.636333 66.6493 0.848999C67.1713 1.06167 67.5967 1.371 67.9253 1.777C68.2733 2.16367 68.4957 2.647 68.5923 3.227L68.4473 3.314C68.9113 2.444 69.5493 1.76733 70.3613 1.284C71.1927 0.781333 72.0627 0.53 72.9713 0.53C74.1507 0.53 75.0787 0.868333 75.7553 1.545C76.4513 2.20233 76.809 3.06267 76.8283 4.126V13H74.1313V5.083C74.112 4.46433 73.9573 3.952 73.6673 3.546C73.3967 3.12067 72.9133 2.88867 72.2173 2.85C71.5213 2.85 70.893 3.06267 70.3323 3.488C69.791 3.91333 69.3657 4.46433 69.0563 5.141C68.747 5.79833 68.5827 6.51367 68.5633 7.287V13H65.8663V5.083C65.847 4.46433 65.6827 3.952 65.3733 3.546C65.0833 3.12067 64.5903 2.88867 63.8943 2.85C63.179 2.85 62.5507 3.06267 62.0093 3.488C61.468 3.91333 61.0427 4.46433 60.7333 5.141C60.4433 5.81767 60.2983 6.54267 60.2983 7.316V13H57.6013V0.993999H60.0083ZM86.375 13.29C85.0023 13.29 83.823 13.0193 82.837 12.478C81.851 11.9173 81.0873 11.1633 80.546 10.216C80.024 9.24933 79.763 8.14733 79.763 6.91C79.763 5.73067 80.0627 4.65767 80.662 3.691C81.2613 2.72433 82.0637 1.951 83.069 1.371C84.0743 0.790999 85.1957 0.500999 86.433 0.500999C88.0183 0.500999 89.333 0.964999 90.377 1.893C91.421 2.821 92.1267 4.097 92.494 5.721L82.605 9.201L81.967 7.606L90.087 4.648L89.507 5.025C89.275 4.387 88.8883 3.836 88.347 3.372C87.8057 2.88867 87.1 2.647 86.23 2.647C85.4953 2.647 84.838 2.83067 84.258 3.198C83.678 3.546 83.2237 4.02933 82.895 4.648C82.5663 5.26667 82.402 5.97233 82.402 6.765C82.402 7.59633 82.576 8.331 82.924 8.969C83.272 9.58767 83.7457 10.0807 84.345 10.448C84.9637 10.796 85.6597 10.97 86.433 10.97C86.955 10.97 87.4577 10.8733 87.941 10.68C88.4437 10.4867 88.9077 10.2353 89.333 9.926L90.58 11.927C89.9807 12.333 89.304 12.6617 88.55 12.913C87.8153 13.1643 87.0903 13.29 86.375 13.29Z" fill="#D20026"/>
</svg>
