<svg width="24" height="24" viewBox="0 0 24 24" fill="none" xmlns="http://www.w3.org/2000/svg">
<path d="M11.9998 10.7498C12.414 10.7498 12.7498 11.0856 12.7498 11.4998V16.4998C12.7498 16.914 12.414 17.2498 11.9998 17.2498C11.5855 17.2498 11.2498 16.914 11.2498 16.4998L11.2498 11.4998C11.2498 11.0856 11.5855 10.7498 11.9998 10.7498Z" fill="white"/>
<path d="M11.9998 8.99982C12.552 8.99982 12.9998 8.55211 12.9998 7.99982C12.9998 7.44754 12.552 6.99982 11.9998 6.99982C11.4475 6.99982 10.9998 7.44754 10.9998 7.99982C10.9998 8.55211 11.4475 8.99982 11.9998 8.99982Z" fill="white"/>
<path fill-rule="evenodd" clip-rule="evenodd" d="M7.31649 3.76858C10.404 3.4235 13.5954 3.4235 16.683 3.76858C18.5094 3.9727 19.9843 5.41134 20.1991 7.2483C20.5683 10.4052 20.5683 13.5944 20.1991 16.7513C19.9843 18.5883 18.5094 20.0269 16.683 20.2311C13.5954 20.5761 10.404 20.5761 7.31649 20.2311C5.49011 20.0269 4.01521 18.5883 3.80036 16.7513C3.43113 13.5944 3.43113 10.4052 3.80036 7.2483C4.01521 5.41134 5.49011 3.9727 7.31649 3.76858ZM16.5164 5.25929C13.5396 4.92659 10.4599 4.92659 7.4831 5.25929C6.33867 5.3872 5.42262 6.29045 5.29021 7.42255C4.93452 10.4637 4.93452 13.5359 5.29021 16.5771C5.42262 17.7092 6.33867 18.6124 7.4831 18.7404C10.4599 19.0731 13.5396 19.0731 16.5164 18.7404C17.6608 18.6124 18.5769 17.7092 18.7093 16.5771C19.065 13.5359 19.065 10.4637 18.7093 7.42256C18.5769 6.29045 17.6608 5.3872 16.5164 5.25929Z" fill="white"/>
</svg>
