<svg width="30" height="30" viewBox="0 0 30 30" fill="none" xmlns="http://www.w3.org/2000/svg">
<path d="M16.7629 15.0002L24.6379 7.13773C24.8733 6.90235 25.0055 6.58311 25.0055 6.25023C25.0055 5.91735 24.8733 5.59811 24.6379 5.36273C24.4025 5.12735 24.0833 4.99512 23.7504 4.99512C23.4175 4.99512 23.0983 5.12735 22.8629 5.36273L15.0004 13.2377L7.13791 5.36273C6.90253 5.12735 6.58329 4.99512 6.25041 4.99512C5.91753 4.99512 5.59829 5.12735 5.36291 5.36273C5.12753 5.59811 4.9953 5.91735 4.9953 6.25023C4.9953 6.58311 5.12753 6.90235 5.36291 7.13773L13.2379 15.0002L5.36291 22.8627C5.24575 22.9789 5.15276 23.1172 5.0893 23.2695C5.02584 23.4218 4.99316 23.5852 4.99316 23.7502C4.99316 23.9152 5.02584 24.0786 5.0893 24.231C5.15276 24.3833 5.24575 24.5215 5.36291 24.6377C5.47912 24.7549 5.61737 24.8479 5.76969 24.9113C5.92202 24.9748 6.0854 25.0075 6.25041 25.0075C6.41543 25.0075 6.57881 24.9748 6.73113 24.9113C6.88346 24.8479 7.02171 24.7549 7.13791 24.6377L15.0004 16.7627L22.8629 24.6377C22.9791 24.7549 23.1174 24.8479 23.2697 24.9113C23.422 24.9748 23.5854 25.0075 23.7504 25.0075C23.9154 25.0075 24.0788 24.9748 24.2311 24.9113C24.3835 24.8479 24.5217 24.7549 24.6379 24.6377C24.7551 24.5215 24.8481 24.3833 24.9115 24.231C24.975 24.0786 25.0077 23.9152 25.0077 23.7502C25.0077 23.5852 24.975 23.4218 24.9115 23.2695C24.8481 23.1172 24.7551 22.9789 24.6379 22.8627L16.7629 15.0002Z" fill="#494546"/>
</svg>
