<svg width="24" height="24" viewBox="0 0 24 24" fill="none" xmlns="http://www.w3.org/2000/svg">
<path d="M10.3598 18.8467C10.3598 18.72 10.3319 18.5949 10.2781 18.4802C10.2244 18.3655 10.146 18.2641 10.0487 18.183C9.95136 18.102 9.83738 18.0433 9.71485 18.0113C9.59232 17.9792 9.46423 17.9744 9.33966 17.9974C8.20904 18.2048 6.78154 18.2361 6.40199 17.17C6.07103 16.3443 5.52283 15.6236 4.8155 15.0842C4.76503 15.0567 4.71693 15.0251 4.67169 14.9897C4.60979 14.8264 4.49983 14.6857 4.35634 14.5862C4.21284 14.4867 4.04254 14.433 3.8679 14.4322H3.86369C3.63533 14.4321 3.41624 14.5225 3.25437 14.6836C3.09251 14.8447 3.00105 15.0633 3.00001 15.2917C2.99664 15.9959 3.70045 16.4472 3.98598 16.5998C4.32268 16.9381 4.59327 17.3363 4.78387 17.7739C5.09847 18.6578 6.01275 19.9989 8.64088 19.826C8.64174 19.8563 8.64256 19.885 8.64298 19.9112L8.64678 20.1423C8.64678 20.3713 8.73777 20.591 8.89974 20.753C9.06171 20.9149 9.28139 21.0059 9.51045 21.0059C9.73951 21.0059 9.95919 20.9149 10.1212 20.753C10.2831 20.591 10.3741 20.3713 10.3741 20.1423L10.3699 19.8673C10.3657 19.7036 10.3598 19.4666 10.3598 18.8467ZM19.5726 5.78277C19.6 5.67482 19.627 5.55505 19.6506 5.4201C19.7903 4.45761 19.6685 3.47527 19.298 2.57602C19.2513 2.45879 19.1795 2.3532 19.0876 2.26666C18.9958 2.18012 18.8861 2.11471 18.7663 2.07503C18.4588 1.97129 17.3236 1.76718 15.1526 3.15463C13.348 2.72995 11.4694 2.72995 9.66481 3.15463C7.50267 1.7875 6.37331 1.97302 6.06883 2.07085C5.94607 2.10893 5.83339 2.17398 5.73904 2.26126C5.64469 2.34853 5.57106 2.45581 5.52355 2.57524C5.14552 3.49175 5.02508 4.49413 5.17522 5.47411C5.19631 5.5846 5.21907 5.68666 5.24269 5.78027C4.5272 6.73328 4.1461 7.89572 4.15847 9.08736C4.15613 9.35323 4.16838 9.61903 4.19515 9.88355C4.48362 13.8586 7.07464 15.0521 8.87998 15.462C8.84246 15.57 8.8083 15.6855 8.77793 15.8078C8.72381 16.03 8.76003 16.2647 8.87864 16.4602C8.99724 16.6558 9.18856 16.7963 9.41064 16.851C9.63271 16.9057 9.86742 16.8701 10.0633 16.7521C10.2592 16.634 10.4002 16.443 10.4555 16.2211C10.5105 15.9333 10.6513 15.669 10.8595 15.4629C10.9854 15.3526 11.0766 15.2082 11.1219 15.0472C11.1672 14.8861 11.1647 14.7153 11.1148 14.5557C11.0648 14.396 10.9695 14.2543 10.8405 14.1477C10.7115 14.0412 10.5543 13.9745 10.388 13.9556C7.40483 13.6149 6.10974 12.3995 5.91491 9.725C5.89333 9.51317 5.88361 9.30029 5.88581 9.08737C5.87195 8.23808 6.15254 7.41018 6.6799 6.74432C6.73289 6.6749 6.78933 6.60818 6.84901 6.54442C6.95475 6.4261 7.02584 6.28093 7.05448 6.12485C7.08313 5.96878 7.06821 5.80782 7.01138 5.65967C6.95311 5.5038 6.90825 5.34324 6.87727 5.17975C6.80691 4.71485 6.82999 4.24058 6.94516 3.78471C7.69581 3.99672 8.40228 4.34181 9.03093 4.80357C9.13489 4.87281 9.25252 4.91889 9.37586 4.93868C9.49919 4.95848 9.62533 4.95152 9.74574 4.91828C11.4913 4.44456 13.3316 4.44485 15.0771 4.91914C15.1981 4.95234 15.3249 4.95891 15.4488 4.93838C15.5726 4.91785 15.6905 4.87071 15.7944 4.80023C16.4201 4.33655 17.1236 3.98837 17.8718 3.77208C17.9864 4.21701 18.0121 4.6802 17.9473 5.13506C17.916 5.31431 17.8671 5.49003 17.8013 5.65968C17.7445 5.80784 17.7296 5.96879 17.7582 6.12487C17.7869 6.28095 17.858 6.42612 17.9637 6.54444C18.0303 6.6195 18.097 6.70047 18.1569 6.77638C18.6805 7.43097 18.9563 8.24935 18.9358 9.08736C18.9374 9.31158 18.9265 9.53571 18.9033 9.75873C18.7131 12.3978 17.413 13.6141 14.4158 13.9556C14.2496 13.9746 14.0923 14.0414 13.9633 14.1481C13.8343 14.2547 13.7391 14.3965 13.6892 14.5563C13.6393 14.716 13.6369 14.8868 13.6823 15.0479C13.7276 15.209 13.8188 15.3535 13.9448 15.4637C14.1595 15.6753 14.3007 15.9503 14.3475 16.2481C14.4059 16.4793 14.4327 16.7173 14.4272 16.9557V18.9715C14.4188 19.5307 14.4188 19.9499 14.4188 20.1422C14.4188 20.3713 14.5098 20.5909 14.6717 20.7529C14.8337 20.9149 15.0534 21.0059 15.2825 21.0059C15.5115 21.0059 15.7312 20.9149 15.8932 20.7529C16.0551 20.5909 16.1461 20.3713 16.1461 20.1422C16.1461 19.955 16.1461 19.5442 16.1546 18.985V16.9557C16.1615 16.5738 16.1165 16.1928 16.0209 15.823C15.9935 15.7016 15.96 15.5817 15.9205 15.4637C17.2344 15.2454 18.4282 14.568 19.2894 13.5521C20.1506 12.5361 20.6233 11.2475 20.6235 9.91561C20.6519 9.64047 20.6652 9.36396 20.6631 9.08736C20.6823 7.89443 20.298 6.72999 19.5726 5.78279L19.5726 5.78277Z" fill="white"/>
</svg>
