<svg width="24" height="24" viewBox="0 0 24 24" fill="none" xmlns="http://www.w3.org/2000/svg">
<path d="M20.0001 7.81955L14.0001 2.67832C13.4501 2.19748 12.738 1.93164 12.0001 1.93164C11.2622 1.93164 10.5501 2.19748 10.0001 2.67832L4.00009 7.81955C3.68246 8.09721 3.42899 8.43782 3.25657 8.81871C3.08414 9.1996 2.99671 9.61202 3.00009 10.0285V18.5712C3.00009 19.3488 3.31617 20.0947 3.87877 20.6446C4.44138 21.1945 5.20445 21.5034 6.00009 21.5034H18.0001C18.7957 21.5034 19.5588 21.1945 20.1214 20.6446C20.684 20.0947 21.0001 19.3488 21.0001 18.5712V10.0187C21.0021 9.60389 20.9139 9.19335 20.7416 8.81425C20.5692 8.43515 20.3165 8.09612 20.0001 7.81955ZM14.0001 19.5486H10.0001V14.6615C10.0001 14.4023 10.1055 14.1536 10.293 13.9703C10.4805 13.787 10.7349 13.6841 11.0001 13.6841H13.0001C13.2653 13.6841 13.5197 13.787 13.7072 13.9703C13.8947 14.1536 14.0001 14.4023 14.0001 14.6615V19.5486ZM19.0001 18.5712C19.0001 18.8304 18.8947 19.079 18.7072 19.2623C18.5197 19.4456 18.2653 19.5486 18.0001 19.5486H16.0001V14.6615C16.0001 13.8838 15.684 13.138 15.1214 12.5881C14.5588 12.0382 13.7957 11.7292 13.0001 11.7292H11.0001C10.2044 11.7292 9.44138 12.0382 8.87877 12.5881C8.31617 13.138 8.00009 13.8838 8.00009 14.6615V19.5486H6.00009C5.73488 19.5486 5.48052 19.4456 5.29299 19.2623C5.10545 19.079 5.00009 18.8304 5.00009 18.5712V10.0187C5.00027 9.87996 5.03069 9.74281 5.08931 9.61642C5.14794 9.49002 5.23343 9.37727 5.3401 9.28568L11.3401 4.15423C11.5226 3.99753 11.7572 3.91111 12.0001 3.91111C12.243 3.91111 12.4776 3.99753 12.6601 4.15423L18.6601 9.28568C18.7668 9.37727 18.8523 9.49002 18.9109 9.61642C18.9695 9.74281 18.9999 9.87996 19.0001 10.0187V18.5712Z" fill="white"/>
</svg>
