<svg width="24" height="23" viewBox="0 0 24 23" fill="none" xmlns="http://www.w3.org/2000/svg">
<path d="M16.9113 8.08203C16.0161 8.08167 15.1347 8.29314 14.3459 8.69756C14.2739 8.51651 14.146 8.36067 13.9791 8.25072C13.8121 8.14078 13.6141 8.08194 13.4113 8.08203H9.41135C9.28 8.08196 9.14993 8.10661 9.02857 8.15458C8.90722 8.20255 8.79695 8.27289 8.70407 8.36158C8.6112 8.45028 8.53754 8.55558 8.48732 8.67148C8.43709 8.78738 8.41127 8.9116 8.41135 9.03703V20.497C8.41127 20.6225 8.43709 20.7467 8.48731 20.8626C8.53754 20.9785 8.6112 21.0838 8.70407 21.1725C8.79694 21.2612 8.90721 21.3315 9.02857 21.3795C9.14993 21.4275 9.28 21.4521 9.41135 21.452H13.4113C13.5427 21.4521 13.6728 21.4275 13.7941 21.3795C13.9155 21.3315 14.0258 21.2612 14.1186 21.1725C14.2115 21.0838 14.2852 20.9785 14.3354 20.8626C14.3856 20.7467 14.4114 20.6225 14.4113 20.497V15.2445C14.4113 14.9912 14.5167 14.7483 14.7042 14.5692C14.8918 14.3901 15.1461 14.2895 15.4113 14.2895C15.6766 14.2895 15.9309 14.3901 16.1185 14.5692C16.306 14.7483 16.4113 14.9912 16.4113 15.2445V20.497C16.4113 20.6225 16.4371 20.7467 16.4873 20.8626C16.5375 20.9785 16.6112 21.0838 16.7041 21.1725C16.7969 21.2612 16.9072 21.3315 17.0286 21.3795C17.1499 21.4275 17.28 21.4521 17.4113 21.452H21.4113C21.5427 21.4521 21.6728 21.4275 21.7941 21.3795C21.9155 21.3315 22.0258 21.2612 22.1186 21.1725C22.2115 21.0838 22.2852 20.9785 22.3354 20.8626C22.3856 20.7467 22.4114 20.6225 22.4113 20.497V13.3345C22.4095 11.942 21.8295 10.607 20.7984 9.62236C19.7674 8.6377 18.3695 8.08376 16.9113 8.08203ZM20.4113 19.542H18.4113V15.2445C18.4113 14.4847 18.0953 13.756 17.5327 13.2187C16.9701 12.6814 16.207 12.3795 15.4113 12.3795C14.6157 12.3795 13.8526 12.6814 13.29 13.2187C12.7274 13.756 12.4113 14.4847 12.4113 15.2445V19.542H10.4113V9.99203H12.4113V10.6635C12.4115 10.8614 12.4759 11.0544 12.5958 11.2158C12.7157 11.3771 12.8851 11.499 13.0806 11.5645C13.2761 11.63 13.4881 11.636 13.6873 11.5815C13.8865 11.527 14.063 11.4148 14.1926 11.2604C14.6414 10.7161 15.2569 10.3192 15.9533 10.1251C16.6497 9.93108 17.3922 9.94955 18.0771 10.178C18.7619 10.4064 19.355 10.8334 19.7735 11.3993C20.192 11.9652 20.415 12.6417 20.4113 13.3345V19.542ZM6.41135 8.08203H2.41135C2.28 8.08196 2.14994 8.10661 2.02858 8.15458C1.90722 8.20255 1.79695 8.27289 1.70407 8.36158C1.6112 8.45028 1.53754 8.55558 1.48732 8.67148C1.43709 8.78738 1.41127 8.9116 1.41135 9.03703V20.497C1.41127 20.6225 1.43709 20.7467 1.48731 20.8626C1.53754 20.9785 1.6112 21.0838 1.70407 21.1725C1.79694 21.2612 1.90721 21.3315 2.02857 21.3795C2.14993 21.4275 2.28 21.4521 2.41135 21.452H6.41135C6.54269 21.4521 6.67276 21.4275 6.79412 21.3795C6.91548 21.3315 7.02575 21.2612 7.11862 21.1725C7.2115 21.0838 7.28515 20.9785 7.33538 20.8626C7.38561 20.7467 7.41142 20.6225 7.41135 20.497V9.03703C7.41142 8.9116 7.38561 8.78738 7.33538 8.67148C7.28515 8.55558 7.2115 8.45028 7.11862 8.36158C7.02575 8.27289 6.91548 8.20255 6.79412 8.15458C6.67276 8.10661 6.54269 8.08196 6.41135 8.08203ZM5.41135 19.542H3.41135V9.99203H5.41135V19.542ZM4.426 0.960595C3.98836 0.935577 3.54996 0.995831 3.13747 1.13769C2.72498 1.27956 2.34702 1.50006 2.02657 1.7858C1.70611 2.07154 1.44986 2.41655 1.27341 2.79983C1.09695 3.18311 1.00397 3.59667 1.00012 4.01535C0.996278 4.43402 1.08164 4.84907 1.25103 5.23525C1.42042 5.62144 1.67029 5.97068 1.98545 6.26174C2.3006 6.55281 2.67446 6.77961 3.08428 6.92837C3.4941 7.07712 3.93132 7.14471 4.36935 7.12703H4.39767C4.83646 7.15192 5.27597 7.09111 5.68932 6.9483C6.10268 6.8055 6.4812 6.58371 6.80177 6.29647C7.12233 6.00924 7.37821 5.66261 7.55376 5.27775C7.7293 4.89289 7.82084 4.47788 7.82276 4.0581C7.82469 3.63831 7.73697 3.22256 7.56497 2.83624C7.39296 2.44993 7.14028 2.10116 6.82237 1.81126C6.50445 1.52135 6.12798 1.2964 5.71595 1.15014C5.30392 1.00387 4.86501 0.939381 4.426 0.960595ZM4.39768 5.21703H4.36935C4.19641 5.23708 4.02099 5.22159 3.85484 5.1716C3.68869 5.1216 3.53565 5.03826 3.40599 4.92715C3.27633 4.81605 3.17305 4.67975 3.10306 4.5274C3.03308 4.37505 2.99801 4.21017 3.00022 4.04382C3.00022 3.3313 3.55979 2.87059 4.426 2.87059C4.6007 2.84834 4.77836 2.86211 4.94701 2.91097C5.11567 2.95982 5.27141 3.04262 5.40373 3.15379C5.53606 3.26497 5.6419 3.40193 5.71414 3.55546C5.78637 3.70898 5.82331 3.87551 5.82248 4.04382C5.82248 4.75634 5.26291 5.21703 4.39768 5.21703Z" fill="white"/>
</svg>
