<svg width="30" height="30" viewBox="0 0 30 30" fill="none" xmlns="http://www.w3.org/2000/svg">
<path fill-rule="evenodd" clip-rule="evenodd" d="M11.1612 5.58828C9.57218 5.41068 7.92729 5.41068 6.33827 5.58828C5.95216 5.63143 5.64766 5.93717 5.60423 6.30849C5.41447 7.93091 5.41447 9.56993 5.60423 11.1924C5.64766 11.5637 5.95216 11.8694 6.33827 11.9126C7.92729 12.0902 9.57218 12.0902 11.1612 11.9126C11.5473 11.8694 11.8518 11.5637 11.8952 11.1924C12.085 9.56993 12.085 7.93091 11.8952 6.30849C11.8518 5.93717 11.5473 5.63143 11.1612 5.58828ZM6.13001 3.72488C7.85744 3.53181 9.64203 3.53181 11.3695 3.72488C12.608 3.8633 13.6111 4.83829 13.7575 6.09067C13.9642 7.85782 13.9642 9.64303 13.7575 11.4102C13.6111 12.6626 12.608 13.6375 11.3695 13.776C9.64203 13.969 7.85744 13.969 6.13001 13.776C4.89146 13.6375 3.8884 12.6626 3.74193 11.4102C3.53524 9.64303 3.53524 7.85782 3.74193 6.09068C3.8884 4.83829 4.89146 3.8633 6.13001 3.72488Z" fill="#4B4B4B"/>
<path fill-rule="evenodd" clip-rule="evenodd" d="M11.1612 18.0883C9.57218 17.9107 7.92729 17.9107 6.33827 18.0883C5.95216 18.1314 5.64766 18.4372 5.60423 18.8085C5.41447 20.4309 5.41447 22.0699 5.60423 23.6924C5.64766 24.0637 5.95216 24.3694 6.33827 24.4126C7.92729 24.5902 9.57218 24.5902 11.1612 24.4126C11.5473 24.3694 11.8518 24.0637 11.8952 23.6924C12.085 22.0699 12.085 20.4309 11.8952 18.8085C11.8518 18.4372 11.5473 18.1314 11.1612 18.0883ZM6.13001 16.2249C7.85744 16.0318 9.64203 16.0318 11.3695 16.2249C12.608 16.3633 13.6111 17.3383 13.7575 18.5907C13.9642 20.3578 13.9642 22.143 13.7575 23.9102C13.6111 25.1626 12.608 26.1375 11.3695 26.276C9.64203 26.469 7.85744 26.469 6.13001 26.276C4.89146 26.1375 3.8884 25.1626 3.74193 23.9102C3.53524 22.143 3.53524 20.3578 3.74193 18.5907C3.8884 17.3383 4.89146 16.3633 6.13001 16.2249Z" fill="#4B4B4B"/>
<path fill-rule="evenodd" clip-rule="evenodd" d="M23.6612 5.58828C22.0722 5.41068 20.4273 5.41068 18.8383 5.58828C18.4522 5.63143 18.1477 5.93717 18.1042 6.30849C17.9145 7.93091 17.9145 9.56993 18.1042 11.1924C18.1477 11.5637 18.4522 11.8694 18.8383 11.9126C20.4273 12.0902 22.0722 12.0902 23.6612 11.9126C24.0473 11.8694 24.3518 11.5637 24.3952 11.1924C24.585 9.56993 24.585 7.93091 24.3952 6.30849C24.3518 5.93717 24.0473 5.63143 23.6612 5.58828ZM18.63 3.72488C20.3574 3.53181 22.142 3.53181 23.8695 3.72488C25.108 3.8633 26.1111 4.83829 26.2575 6.09067C26.4642 7.85782 26.4642 9.64303 26.2575 11.4102C26.1111 12.6626 25.108 13.6375 23.8695 13.776C22.142 13.969 20.3574 13.969 18.63 13.776C17.3915 13.6375 16.3884 12.6626 16.2419 11.4102C16.0352 9.64303 16.0352 7.85782 16.2419 6.09068C16.3884 4.83829 17.3915 3.8633 18.63 3.72488Z" fill="#4B4B4B"/>
<path fill-rule="evenodd" clip-rule="evenodd" d="M23.6612 18.0883C22.0722 17.9107 20.4273 17.9107 18.8383 18.0883C18.4522 18.1314 18.1477 18.4372 18.1042 18.8085C17.9145 20.4309 17.9145 22.0699 18.1042 23.6924C18.1477 24.0637 18.4522 24.3694 18.8383 24.4126C20.4273 24.5902 22.0722 24.5902 23.6612 24.4126C24.0473 24.3694 24.3518 24.0637 24.3952 23.6924C24.585 22.0699 24.585 20.4309 24.3952 18.8085C24.3518 18.4372 24.0473 18.1314 23.6612 18.0883ZM18.63 16.2249C20.3574 16.0318 22.142 16.0318 23.8695 16.2249C25.108 16.3633 26.1111 17.3383 26.2575 18.5907C26.4642 20.3578 26.4642 22.143 26.2575 23.9102C26.1111 25.1626 25.108 26.1375 23.8695 26.276C22.142 26.469 20.3574 26.469 18.63 26.276C17.3915 26.1375 16.3884 25.1626 16.2419 23.9102C16.0352 22.143 16.0352 20.3578 16.2419 18.5907C16.3884 17.3383 17.3915 16.3633 18.63 16.2249Z" fill="#4B4B4B"/>
</svg>
