<svg width="20" height="20" viewBox="0 0 20 20" fill="none" xmlns="http://www.w3.org/2000/svg">
<path d="M10.591 13.5753L10.466 13.4753C10.4196 13.4438 10.3691 13.4186 10.316 13.4003L10.166 13.3337C10.0309 13.3054 9.89082 13.3112 9.75845 13.3504C9.62608 13.3897 9.50555 13.4613 9.40768 13.5587C9.33407 13.6397 9.27488 13.7327 9.23268 13.8337C9.16962 13.9855 9.15287 14.1526 9.18456 14.3139C9.21625 14.4753 9.29495 14.6236 9.41076 14.7403C9.52657 14.857 9.67432 14.9368 9.8354 14.9698C9.99648 15.0027 10.1637 14.9872 10.316 14.9253C10.4156 14.877 10.5081 14.8153 10.591 14.742C10.7066 14.6248 10.785 14.476 10.8161 14.3143C10.8473 14.1527 10.8298 13.9854 10.766 13.8337C10.7245 13.7373 10.6651 13.6497 10.591 13.5753V13.5753ZM13.3327 1.66699H6.66602C6.00297 1.66699 5.36709 1.93038 4.89825 2.39923C4.42941 2.86807 4.16602 3.50395 4.16602 4.16699V15.8337C4.16602 16.4967 4.42941 17.1326 4.89825 17.6014C5.36709 18.0703 6.00297 18.3337 6.66602 18.3337H13.3327C13.9957 18.3337 14.6316 18.0703 15.1004 17.6014C15.5693 17.1326 15.8327 16.4967 15.8327 15.8337V4.16699C15.8327 3.50395 15.5693 2.86807 15.1004 2.39923C14.6316 1.93038 13.9957 1.66699 13.3327 1.66699ZM14.166 15.8337C14.166 16.0547 14.0782 16.2666 13.9219 16.4229C13.7657 16.5792 13.5537 16.667 13.3327 16.667H6.66602C6.445 16.667 6.23304 16.5792 6.07676 16.4229C5.92048 16.2666 5.83268 16.0547 5.83268 15.8337V4.16699C5.83268 3.94598 5.92048 3.73402 6.07676 3.57774C6.23304 3.42146 6.445 3.33366 6.66602 3.33366H13.3327C13.5537 3.33366 13.7657 3.42146 13.9219 3.57774C14.0782 3.73402 14.166 3.94598 14.166 4.16699V15.8337Z" fill="black" fill-opacity="0.5"/>
</svg>
