<svg width="31" height="31" viewBox="0 0 31 31" fill="none" xmlns="http://www.w3.org/2000/svg">
<path d="M23.9376 11.6205L11.4655 4.46772C10.7906 4.07801 10.0246 3.87385 9.24528 3.87599C8.46596 3.87813 7.70108 4.08649 7.02835 4.4799C6.35562 4.87331 5.79899 5.43776 5.415 6.11592C5.03101 6.79408 4.83334 7.56178 4.84207 8.34105V22.6982C4.84207 23.8693 5.30729 24.9924 6.13537 25.8205C6.96346 26.6486 8.08659 27.1138 9.25768 27.1138C10.0329 27.1125 10.7942 26.9077 11.4655 26.5199L23.9376 19.3672C24.6078 18.9793 25.1642 18.422 25.551 17.7512C25.9378 17.0805 26.1414 16.3198 26.1414 15.5455C26.1414 14.7712 25.9378 14.0105 25.551 13.3397C25.1642 12.6689 24.6078 12.1116 23.9376 11.7238V11.6205ZM22.6465 17.0302L10.1744 24.2863C9.89483 24.4447 9.579 24.528 9.25768 24.528C8.93636 24.528 8.62053 24.4447 8.34099 24.2863C8.06223 24.1254 7.83076 23.8939 7.66985 23.6151C7.50893 23.3363 7.42424 23.0201 7.4243 22.6982V8.28941C7.42424 7.96753 7.50893 7.65131 7.66985 7.37254C7.83076 7.09377 8.06223 6.86228 8.34099 6.70134C8.62169 6.54532 8.93658 6.46105 9.25768 6.45603C9.57856 6.46262 9.89308 6.54678 10.1744 6.70134L22.6465 13.9058C22.9254 14.0666 23.157 14.2981 23.318 14.5769C23.479 14.8556 23.5638 15.1719 23.5638 15.4938C23.5638 15.8158 23.479 16.132 23.318 16.4108C23.157 16.6896 22.9254 16.921 22.6465 17.0819V17.0302Z" fill="#494546"/>
</svg>
