<svg width="20" height="20" viewBox="0 0 20 20" fill="none" xmlns="http://www.w3.org/2000/svg">
<path d="M12.4997 17.3491C12.8762 17.3491 13.1815 17.0439 13.1815 16.6673C13.1815 16.2908 12.8762 15.9855 12.4997 15.9855V17.3491ZM7.49967 15.9855C7.12312 15.9855 6.81786 16.2908 6.81786 16.6673C6.81786 17.0439 7.12312 17.3491 7.49967 17.3491V15.9855ZM3.33301 12.5007V11.8188C2.95645 11.8188 2.65119 12.1241 2.65119 12.5007H3.33301ZM16.6663 12.5007H17.3482C17.3482 12.1241 17.0429 11.8188 16.6663 11.8188V12.5007ZM12.4997 15.9855H7.49967V17.3491H12.4997V15.9855ZM4.16634 4.0158H15.833V2.65217H4.16634V4.0158ZM15.9845 4.16732V13.334H17.3482V4.16732H15.9845ZM15.833 13.4855H4.16634V14.8491H15.833V13.4855ZM4.01483 13.334V4.16732H2.65119V13.334H4.01483ZM4.16634 13.4855C4.08266 13.4855 4.01483 13.4177 4.01483 13.334H2.65119C2.65119 14.1708 3.32955 14.8491 4.16634 14.8491V13.4855ZM15.9845 13.334C15.9845 13.4177 15.9167 13.4855 15.833 13.4855V14.8491C16.6698 14.8491 17.3482 14.1708 17.3482 13.334H15.9845ZM15.833 4.0158C15.9167 4.0158 15.9845 4.08364 15.9845 4.16732H17.3482C17.3482 3.33052 16.6698 2.65217 15.833 2.65217V4.0158ZM4.16634 2.65217C3.32955 2.65217 2.65119 3.33052 2.65119 4.16732H4.01483C4.01483 4.08364 4.08266 4.0158 4.16634 4.0158V2.65217ZM3.33301 13.1825H16.6663V11.8188H3.33301V13.1825ZM15.9845 12.5007V13.334H17.3482V12.5007H15.9845ZM4.01483 13.334V12.5007H2.65119V13.334H4.01483Z" fill="black" fill-opacity="0.5"/>
</svg>
