<svg width="17" height="17" viewBox="0 0 17 17" fill="none" xmlns="http://www.w3.org/2000/svg">
<path d="M11.3055 7.25664L7.77246 5.21458C7.55774 5.09061 7.31417 5.02531 7.06623 5.02525C6.81828 5.02518 6.57469 5.09035 6.3599 5.21422C6.14511 5.33808 5.96668 5.51627 5.84255 5.7309C5.71841 5.94553 5.65293 6.18905 5.65267 6.43699V10.5211C5.65293 10.7689 5.71835 11.0123 5.84237 11.2269C5.96639 11.4415 6.14465 11.6196 6.35927 11.7435C6.5741 11.8676 6.8178 11.9329 7.06587 11.9329C7.31393 11.9329 7.55763 11.8676 7.77246 11.7435L11.3055 9.70147C11.5196 9.57724 11.6974 9.39894 11.8209 9.1844C11.9445 8.96987 12.0095 8.72663 12.0095 8.47906C12.0095 8.23148 11.9445 7.98825 11.8209 7.77371C11.6974 7.55918 11.5196 7.38087 11.3055 7.25664V7.25664ZM10.5989 8.47906L7.06587 10.5211V6.43699L10.5989 8.47906ZM8.47906 1.41309C7.08154 1.41309 5.71541 1.8275 4.55342 2.60392C3.39142 3.38034 2.48576 4.48389 1.95095 5.77503C1.41615 7.06616 1.27622 8.4869 1.54886 9.85756C1.8215 11.2282 2.49447 12.4873 3.48266 13.4755C4.47086 14.4636 5.72989 15.1366 7.10056 15.4093C8.47122 15.6819 9.89195 15.542 11.1831 15.0072C12.4742 14.4724 13.5778 13.5667 14.3542 12.4047C15.1306 11.2427 15.545 9.87657 15.545 8.47906C15.545 7.55114 15.3623 6.63231 15.0072 5.77503C14.6521 4.91774 14.1316 4.1388 13.4755 3.48266C12.8193 2.82652 12.0404 2.30605 11.1831 1.95095C10.3258 1.59585 9.40698 1.41309 8.47906 1.41309V1.41309ZM8.47906 14.1318C7.36105 14.1318 6.26814 13.8003 5.33855 13.1792C4.40895 12.558 3.68442 11.6752 3.25658 10.6423C2.82873 9.60937 2.71679 8.47279 2.9349 7.37626C3.15301 6.27972 3.69139 5.2725 4.48194 4.48194C5.2725 3.69139 6.27973 3.15301 7.37626 2.9349C8.47279 2.71678 9.60938 2.82873 10.6423 3.25657C11.6752 3.68442 12.558 4.40895 13.1792 5.33854C13.8003 6.26814 14.1318 7.36104 14.1318 8.47906C14.1318 9.97827 13.5363 11.4161 12.4762 12.4762C11.4161 13.5363 9.97827 14.1318 8.47906 14.1318V14.1318Z" fill="#D20026"/>
</svg>
